<?xml version="1.0" encoding="UTF-8" standalone="no"?>
<!DOCTYPE svg PUBLIC "-//W3C//DTD SVG 1.1//EN" "http://www.w3.org/Graphics/SVG/1.1/DTD/svg11.dtd">
<svg 
    version="1.1" 
    xmlns="http://www.w3.org/2000/svg"
    xmlns:xlink="http://www.w3.org/1999/xlink" 
    preserveAspectRatio="xMidYMid meet" 
    viewBox="143.91216216215724 11.349999999990818 367.19692874693703 617.7511363636468" 
    width="363.2" 
    height="613.75">
    <defs>
        <path 
            d="M158.75 575.7C148.08 572.03 143.58 563.53 145.25 550.2L167.3 404.95L209.15 134.35C201.75 126.52 200.55 116.1 205.55 103.1C210.55 90.1 218.72 84.1 230.05 85.1C241.35 86.93 250 88.18 256 88.85C262 89.52 264.67 87.68 264 83.35L260 17.35L303.5 12.35C305.83 46.02 307.5 68.35 308.5 79.35C309.5 90.35 311.07 96.1 313.2 96.6C417.6 112.27 476.97 121.6 491.3 124.6C505.63 127.6 510.8 137.43 506.8 154.1L505.3 161.6C503.97 164.27 501.97 167.1 499.3 170.1C496.63 173.1 493.3 179.6 489.3 189.6L407.25 449.55C381.58 531.22 365.58 582.55 359.25 603.55C352.92 624.55 342.75 630.88 328.75 622.55L250.25 601.05C199.92 587.82 169.42 579.37 158.75 575.7Z" id="j15m8z9yBR">
        </path>
    </defs>
    <g>
    <g>
    <g>
        <use xlink:href="#j15m8z9yBR" opacity="1" fill-opacity="0" stroke="#000000" stroke-width="1" stroke-opacity="1">
        </use>
    </g>
    </g>
    </g>
</svg>